<svg xmlns="http://www.w3.org/2000/svg" width="1800" height="970" viewBox="0 0 1800 970" role="img" aria-labelledby="diag-title diag-desc">
  <title id="diag-title">Received Bank — Arquitetura AWS</title>
  <desc id="diag-desc">Diagrama de arquitetura AWS mostrando borda segura, entrada assíncrona via SQS, microsserviços em EKS (boleto, payment, query, notification), RDS, ElastiCache, Amazon MSK, CloudWatch e Secrets Manager. Padrões: DDD, CQRS, Transactional Outbox, Event-Driven.</desc>

  <defs>
    <!-- ── Arrowhead markers ── -->
    <marker id="mh"  viewBox="0 0 10 10" refX="9" refY="5" markerWidth="7" markerHeight="7" orient="auto-start-reverse"><path d="M0,0 L10,5 L0,10z" fill="#445566"/></marker>
    <marker id="mhe" viewBox="0 0 10 10" refX="9" refY="5" markerWidth="7" markerHeight="7" orient="auto-start-reverse"><path d="M0,0 L10,5 L0,10z" fill="#E7157B"/></marker>
    <marker id="mhr" viewBox="0 0 10 10" refX="9" refY="5" markerWidth="7" markerHeight="7" orient="auto-start-reverse"><path d="M0,0 L10,5 L0,10z" fill="#DD344C"/></marker>
    <marker id="mhg" viewBox="0 0 10 10" refX="9" refY="5" markerWidth="7" markerHeight="7" orient="auto-start-reverse"><path d="M0,0 L10,5 L0,10z" fill="#7B8EA0"/></marker>

    <!-- ── AWS Service Icons (36×36 viewBox) ── -->

    <!-- Route 53 — purple globe -->
    <symbol id="i-r53" viewBox="0 0 36 36">
      <rect width="36" height="36" rx="6" fill="#8C4FFF"/>
      <circle cx="18" cy="18" r="10" fill="none" stroke="white" stroke-width="1.8"/>
      <ellipse cx="18" cy="18" rx="5" ry="10" fill="none" stroke="white" stroke-width="1.4"/>
      <line x1="8" y1="18" x2="28" y2="18" stroke="white" stroke-width="1.4"/>
      <line x1="9.5" y1="13" x2="26.5" y2="13" stroke="white" stroke-width="1"/>
      <line x1="9.5" y1="23" x2="26.5" y2="23" stroke="white" stroke-width="1"/>
    </symbol>

    <!-- CloudFront — purple CDN -->
    <symbol id="i-cf" viewBox="0 0 36 36">
      <rect width="36" height="36" rx="6" fill="#8C4FFF"/>
      <circle cx="18" cy="18" r="10" fill="none" stroke="white" stroke-width="1.8"/>
      <line x1="18" y1="8" x2="18" y2="28" stroke="white" stroke-width="1.4"/>
      <line x1="8"  y1="18" x2="28" y2="18" stroke="white" stroke-width="1.4"/>
      <path d="M10.5 12 Q18 16.5 25.5 12" fill="none" stroke="white" stroke-width="1.2"/>
      <path d="M10.5 24 Q18 19.5 25.5 24" fill="none" stroke="white" stroke-width="1.2"/>
    </symbol>

    <!-- WAF — red shield -->
    <symbol id="i-waf" viewBox="0 0 36 36">
      <rect width="36" height="36" rx="6" fill="#DD344C"/>
      <path d="M18 6 L29 11 V21 C29 27.5 24 33 18 35 C12 33 7 27.5 7 21 V11 Z" fill="none" stroke="white" stroke-width="2"/>
      <path d="M13.5 19 L17 22.5 L24 14.5" fill="none" stroke="white" stroke-width="2.2" stroke-linecap="round" stroke-linejoin="round"/>
    </symbol>

    <!-- API Gateway — purple brackets -->
    <symbol id="i-apigw" viewBox="0 0 36 36">
      <rect width="36" height="36" rx="6" fill="#A166FF"/>
      <path d="M12 12 L7 18 L12 24" fill="none" stroke="white" stroke-width="2.4" stroke-linecap="round" stroke-linejoin="round"/>
      <path d="M24 12 L29 18 L24 24" fill="none" stroke="white" stroke-width="2.4" stroke-linecap="round" stroke-linejoin="round"/>
      <line x1="20" y1="10" x2="16" y2="26" stroke="white" stroke-width="2.4" stroke-linecap="round"/>
    </symbol>

    <!-- SQS — pink queue -->
    <symbol id="i-sqs" viewBox="0 0 36 36">
      <rect width="36" height="36" rx="6" fill="#E7157B"/>
      <rect x="6" y="10" width="24" height="4.5" rx="2.2" fill="white"/>
      <rect x="6" y="17.5" width="24" height="4.5" rx="2.2" fill="white"/>
      <rect x="6" y="25" width="16" height="4.5" rx="2.2" fill="white"/>
      <path d="M26 26.5 L31 28.5 L26 30.5" fill="none" stroke="white" stroke-width="1.8" stroke-linecap="round" stroke-linejoin="round"/>
    </symbol>

    <!-- EKS — orange Kubernetes -->
    <symbol id="i-eks" viewBox="0 0 36 36">
      <rect width="36" height="36" rx="6" fill="#FF9900"/>
      <circle cx="18" cy="18" r="8" fill="none" stroke="white" stroke-width="1.8"/>
      <circle cx="18" cy="18" r="2.5" fill="white"/>
      <g stroke="white" stroke-width="1.8" stroke-linecap="round">
        <line x1="18" y1="8"  x2="18" y2="12.5"/>
        <line x1="18" y1="23.5" x2="18" y2="28"/>
        <line x1="8"  y1="18" x2="12.5" y2="18"/>
        <line x1="23.5" y1="18" x2="28" y2="18"/>
        <line x1="11.2" y1="11.2" x2="14.4" y2="14.4"/>
        <line x1="21.6" y1="21.6" x2="24.8" y2="24.8"/>
        <line x1="24.8" y1="11.2" x2="21.6" y2="14.4"/>
        <line x1="14.4" y1="21.6" x2="11.2" y2="24.8"/>
      </g>
    </symbol>

    <!-- Pod/Service — orange 4 squares -->
    <symbol id="i-pod" viewBox="0 0 36 36">
      <rect width="36" height="36" rx="6" fill="#FF9900"/>
      <rect x="4"  y="4"  width="12" height="12" rx="2" fill="white"/>
      <rect x="20" y="4"  width="12" height="12" rx="2" fill="white"/>
      <rect x="4"  y="20" width="12" height="12" rx="2" fill="white"/>
      <rect x="20" y="20" width="12" height="12" rx="2" fill="white"/>
    </symbol>

    <!-- Outbox Worker — orange gear -->
    <symbol id="i-gear" viewBox="0 0 36 36">
      <rect width="36" height="36" rx="6" fill="#FF9900"/>
      <circle cx="18" cy="18" r="5" fill="none" stroke="white" stroke-width="1.8"/>
      <circle cx="18" cy="18" r="1.8" fill="white"/>
      <g stroke="white" stroke-width="1.8" stroke-linecap="round">
        <line x1="18" y1="7"  x2="18" y2="11"/>
        <line x1="18" y1="25" x2="18" y2="29"/>
        <line x1="7"  y1="18" x2="11" y2="18"/>
        <line x1="25" y1="18" x2="29" y2="18"/>
        <line x1="10.3" y1="10.3" x2="13.1" y2="13.1"/>
        <line x1="22.9" y1="22.9" x2="25.7" y2="25.7"/>
        <line x1="25.7" y1="10.3" x2="22.9" y2="13.1"/>
        <line x1="13.1" y1="22.9" x2="10.3" y2="25.7"/>
      </g>
    </symbol>

    <!-- RDS — indigo cylinder -->
    <symbol id="i-rds" viewBox="0 0 36 36">
      <rect width="36" height="36" rx="6" fill="#4D27AA"/>
      <ellipse cx="18" cy="12" rx="10" ry="4" fill="white"/>
      <rect x="8" y="12" width="20" height="13" fill="white"/>
      <ellipse cx="18" cy="25" rx="10" ry="4" fill="#C4B0E8"/>
      <ellipse cx="18" cy="25" rx="10" ry="4" fill="none" stroke="white" stroke-width="1.4"/>
      <line x1="8"  y1="12" x2="8"  y2="25" stroke="#4D27AA" stroke-width="0.8"/>
      <line x1="28" y1="12" x2="28" y2="25" stroke="#4D27AA" stroke-width="0.8"/>
    </symbol>

    <!-- ElastiCache — indigo lightning -->
    <symbol id="i-elasticache" viewBox="0 0 36 36">
      <rect width="36" height="36" rx="6" fill="#4D27AA"/>
      <path d="M20 6 L12 20 L18 20 L16 30 L24 16 L18 16 Z" fill="white"/>
    </symbol>

    <!-- S3 — green hexabox -->
    <symbol id="i-s3" viewBox="0 0 36 36">
      <rect width="36" height="36" rx="6" fill="#569A31"/>
      <polygon points="18,6 30,13 30,25 18,32 6,25 6,13" fill="none" stroke="white" stroke-width="1.8"/>
      <line x1="6"  y1="13" x2="18" y2="20" stroke="white" stroke-width="1.4"/>
      <line x1="30" y1="13" x2="18" y2="20" stroke="white" stroke-width="1.4"/>
      <line x1="18" y1="20" x2="18" y2="32" stroke="white" stroke-width="1.4"/>
    </symbol>

    <!-- MSK — pink distributed mesh -->
    <symbol id="i-msk" viewBox="0 0 36 36">
      <rect width="36" height="36" rx="6" fill="#E7157B"/>
      <circle cx="18" cy="18" r="4" fill="white"/>
      <circle cx="9"  cy="10" r="3" fill="white"/>
      <circle cx="27" cy="10" r="3" fill="white"/>
      <circle cx="9"  cy="26" r="3" fill="white"/>
      <circle cx="27" cy="26" r="3" fill="white"/>
      <g stroke="white" stroke-width="1.5">
        <line x1="9"  y1="10" x2="18" y2="18"/>
        <line x1="27" y1="10" x2="18" y2="18"/>
        <line x1="9"  y1="26" x2="18" y2="18"/>
        <line x1="27" y1="26" x2="18" y2="18"/>
      </g>
    </symbol>

    <!-- CloudWatch — pink chart -->
    <symbol id="i-cw" viewBox="0 0 36 36">
      <rect width="36" height="36" rx="6" fill="#E7157B"/>
      <rect x="5" y="7" width="26" height="17" rx="3" fill="none" stroke="white" stroke-width="1.8"/>
      <path d="M10 21 L15 15 L19 18.5 L25 11" fill="none" stroke="white" stroke-width="2" stroke-linecap="round" stroke-linejoin="round"/>
      <line x1="12" y1="29" x2="24" y2="29" stroke="white" stroke-width="2" stroke-linecap="round"/>
      <line x1="18" y1="24" x2="18" y2="29" stroke="white" stroke-width="2"/>
    </symbol>

    <!-- X-Ray — pink traces -->
    <symbol id="i-xray" viewBox="0 0 36 36">
      <rect width="36" height="36" rx="6" fill="#E7157B"/>
      <line x1="6"  y1="12" x2="30" y2="12" stroke="white" stroke-width="1.8" stroke-linecap="round"/>
      <line x1="6"  y1="19" x2="22" y2="19" stroke="white" stroke-width="1.8" stroke-linecap="round"/>
      <line x1="6"  y1="26" x2="27" y2="26" stroke="white" stroke-width="1.8" stroke-linecap="round"/>
      <circle cx="22" cy="19" r="2.5" fill="white"/>
      <circle cx="27" cy="26" r="2.5" fill="white"/>
      <circle cx="30" cy="12" r="2.5" fill="white"/>
    </symbol>

    <!-- Secrets Manager — red lock -->
    <symbol id="i-secrets" viewBox="0 0 36 36">
      <rect width="36" height="36" rx="6" fill="#DD344C"/>
      <rect x="10" y="18" width="16" height="12" rx="2" fill="white"/>
      <path d="M14 18 L14 13.5 A4.5 4.5 0 0 1 22 13.5 L22 18" fill="none" stroke="white" stroke-width="2.4" stroke-linecap="round"/>
      <circle cx="18" cy="24" r="2.2" fill="#DD344C"/>
    </symbol>

    <!-- ECR — orange container registry -->
    <symbol id="i-ecr" viewBox="0 0 36 36">
      <rect width="36" height="36" rx="6" fill="#FF9900"/>
      <rect x="6" y="11" width="24" height="16" rx="3" fill="none" stroke="white" stroke-width="1.8"/>
      <line x1="6" y1="18" x2="30" y2="18" stroke="white" stroke-width="1.4"/>
      <circle cx="11" cy="14.5" r="1.4" fill="white"/>
      <circle cx="16" cy="14.5" r="1.4" fill="white"/>
      <rect x="10" y="21" width="16" height="4" rx="1" fill="white"/>
    </symbol>

    <!-- SNS — pink bell -->
    <symbol id="i-sns" viewBox="0 0 36 36">
      <rect width="36" height="36" rx="6" fill="#E7157B"/>
      <path d="M13 22 L13 16 A5 5 0 0 1 23 16 L23 22 L27 25 L9 25 Z" fill="none" stroke="white" stroke-width="1.8" stroke-linejoin="round"/>
      <line x1="9" y1="25" x2="27" y2="25" stroke="white" stroke-width="1.8" stroke-linecap="round"/>
      <path d="M15.5 25 A2.5 2.5 0 0 0 20.5 25" fill="none" stroke="white" stroke-width="1.8"/>
      <circle cx="18" cy="10" r="1.8" fill="white"/>
    </symbol>

  </defs>

  <!-- ═══════════════════════════════════════════════════
       BACKGROUND
  ═══════════════════════════════════════════════════ -->
  <rect width="1800" height="970" fill="#FFFFFF"/>

  <!-- ═══════════════════════════════════════════════════
       TITLE
  ═══════════════════════════════════════════════════ -->
  <text x="30" y="36" font-family="Inter,'Amazon Ember',Arial,sans-serif" font-size="22" font-weight="700" fill="#16191F">Received Bank — Arquitetura AWS</text>
  <text x="30" y="57" font-family="Inter,'Amazon Ember',Arial,sans-serif" font-size="13" fill="#545B64">Java 21 · Spring Boot · EKS · Amazon MSK · RDS PostgreSQL · DDD · CQRS · Transactional Outbox · Event-Driven Architecture</text>

  <!-- ═══════════════════════════════════════════════════
       AWS CLOUD BOUNDARY
  ═══════════════════════════════════════════════════ -->
  <rect x="134" y="70" width="1652" height="800" rx="8" fill="none" stroke="#AAB7C4" stroke-width="1.5" stroke-dasharray="8,4"/>
  <rect x="144" y="73" width="26" height="15" rx="3" fill="#FF9900"/>
  <text x="149" y="85" font-family="Arial,sans-serif" font-size="9" font-weight="700" fill="white">AWS</text>
  <text x="174" y="85" font-family="Inter,Arial,sans-serif" font-size="11" font-weight="700" fill="#545B64">Cloud</text>

  <!-- ═══════════════════════════════════════════════════
       VPC BOUNDARY
  ═══════════════════════════════════════════════════ -->
  <rect x="344" y="88" width="908" height="772" rx="6" fill="#EEF2FF" fill-opacity="0.45" stroke="#5B8DEF" stroke-width="1.4" stroke-dasharray="7,4"/>
  <text x="356" y="104" font-family="Inter,Arial,sans-serif" font-size="11" font-weight="700" fill="#5B8DEF" letter-spacing="0.3">VPC — us-east-1 · Private Subnet</text>

  <!-- ═══════════════════════════════════════════════════
       EKS CLUSTER BOUNDARY
  ═══════════════════════════════════════════════════ -->
  <rect x="554" y="100" width="260" height="490" rx="6" fill="#FFF8EE" stroke="#FF9900" stroke-width="1.5" stroke-dasharray="6,4"/>
  <use href="#i-eks" x="558" y="103" width="16" height="16"/>
  <text x="578" y="116" font-family="Inter,Arial,sans-serif" font-size="11" font-weight="700" fill="#CC7A00">Amazon EKS Cluster</text>

  <!-- ═══════════════════════════════════════════════════
       ZONE LABELS
  ═══════════════════════════════════════════════════ -->
  <text x="155" y="116"  font-family="Inter,Arial,sans-serif" font-size="10" font-weight="700" fill="#7B8EA0" letter-spacing="0.6">BORDA SEGURA</text>
  <text x="365" y="392" font-family="Inter,Arial,sans-serif" font-size="10" font-weight="700" fill="#7B8EA0" letter-spacing="0.6">ENTRADA ASSÍNCRONA</text>
  <text x="858" y="196" font-family="Inter,Arial,sans-serif" font-size="10" font-weight="700" fill="#7B8EA0" letter-spacing="0.6">DADOS</text>
  <text x="1069" y="170" font-family="Inter,Arial,sans-serif" font-size="10" font-weight="700" fill="#7B8EA0" letter-spacing="0.6">EVENT BUS</text>
  <text x="1278" y="116" font-family="Inter,Arial,sans-serif" font-size="10" font-weight="700" fill="#7B8EA0" letter-spacing="0.6">SERVIÇOS GERENCIADOS AWS</text>

  <!-- ═══════════════════════════════════════════════════
       ZONE BACKGROUNDS
  ═══════════════════════════════════════════════════ -->
  <!-- Edge / Borda Segura: lavender — Route53 y=128 … API GW y=404+72=476 -->
  <rect x="140" y="116" width="200" height="372" rx="5" fill="#EDE4FF" fill-opacity="0.78"/>
  <!-- Async ingestion: rose-pink — SQS y=404 … DLQ y=496+72=568 -->
  <rect x="350" y="392" width="200" height="188" rx="5" fill="#FFD9EE" fill-opacity="0.78"/>
  <!-- Data: saturated steel-blue — noticeably distinct from the VPC tint -->
  <rect x="844" y="208" width="204" height="468" rx="6" fill="#B8D4F5" fill-opacity="0.72"/>
  <!-- Data zone dashed border for extra visibility -->
  <rect x="844" y="208" width="204" height="468" rx="6" fill="none" stroke="#5B8DEF" stroke-width="1" stroke-dasharray="5,4"/>

  <!-- ═══════════════════════════════════════════════════
       CLIENT
  ═══════════════════════════════════════════════════ -->
  <circle cx="72" cy="402" r="18" fill="#232F3E"/>
  <path d="M46 446 C46 422 98 422 98 446" fill="#232F3E"/>
  <text x="72" y="462" text-anchor="middle" font-family="Inter,Arial,sans-serif" font-size="12" font-weight="600" fill="#16191F">Cliente PJ</text>
  <text x="72" y="476" text-anchor="middle" font-family="Inter,Arial,sans-serif" font-size="10" fill="#545B64">/ Parceiro</text>

  <!-- ═══════════════════════════════════════════════════
       HELPER: service card macro (inlined for each service)
       Card: rect(x,y,185,72,rx=5) white + border
       Icon: use(x+9, y+18, 36, 36)
       Label: text(x+53, y+31)
       Sub:   text(x+53, y+50)
  ═══════════════════════════════════════════════════ -->

  <!-- ── EDGE COLUMN (x=148) — all cards at y+20 to align with EKS row 1 (y=128) ── -->
  <!-- Route 53 R1 y=128 -->
  <rect x="148" y="128" width="185" height="72" rx="5" fill="white" stroke="#D5DBE5" stroke-width="1.2"/>
  <use href="#i-r53" x="157" y="146" width="36" height="36"/>
  <text x="201" y="159" font-family="Inter,Arial,sans-serif" font-size="13" font-weight="600" fill="#16191F">Amazon Route 53</text>
  <text x="201" y="177" font-family="Inter,Arial,sans-serif" font-size="11" fill="#545B64">DNS · health checks</text>

  <!-- CloudFront R2 y=220 -->
  <rect x="148" y="220" width="185" height="72" rx="5" fill="white" stroke="#D5DBE5" stroke-width="1.2"/>
  <use href="#i-cf" x="157" y="238" width="36" height="36"/>
  <text x="201" y="251" font-family="Inter,Arial,sans-serif" font-size="13" font-weight="600" fill="#16191F">CloudFront</text>
  <text x="201" y="269" font-family="Inter,Arial,sans-serif" font-size="11" fill="#545B64">CDN · TLS · cache</text>

  <!-- WAF R3 y=312 -->
  <rect x="148" y="312" width="185" height="72" rx="5" fill="white" stroke="#D5DBE5" stroke-width="1.2"/>
  <use href="#i-waf" x="157" y="330" width="36" height="36"/>
  <text x="201" y="343" font-family="Inter,Arial,sans-serif" font-size="13" font-weight="600" fill="#16191F">AWS WAF</text>
  <text x="201" y="361" font-family="Inter,Arial,sans-serif" font-size="11" fill="#545B64">proteção · rate limit</text>

  <!-- API Gateway R4 y=404 -->
  <rect x="148" y="404" width="185" height="72" rx="5" fill="white" stroke="#D5DBE5" stroke-width="1.2"/>
  <use href="#i-apigw" x="157" y="422" width="36" height="36"/>
  <text x="201" y="435" font-family="Inter,Arial,sans-serif" font-size="13" font-weight="600" fill="#16191F">API Gateway</text>
  <text x="201" y="453" font-family="Inter,Arial,sans-serif" font-size="11" fill="#545B64">auth · throttling</text>

  <!-- ── ASYNC COLUMN (x=358) ── -->
  <!-- SQS y=404 — aligned with API Gateway and boleto-service -->
  <rect x="358" y="404" width="185" height="72" rx="5" fill="white" stroke="#D5DBE5" stroke-width="1.2"/>
  <use href="#i-sqs" x="367" y="422" width="36" height="36"/>
  <text x="411" y="435" font-family="Inter,Arial,sans-serif" font-size="13" font-weight="600" fill="#16191F">Amazon SQS</text>
  <text x="411" y="453" font-family="Inter,Arial,sans-serif" font-size="11" fill="#545B64">boleto-generation</text>

  <!-- DLQ y=496 — aligned with outbox-worker and ElastiCache -->
  <rect x="358" y="496" width="185" height="72" rx="5" fill="white" stroke="#DD344C" stroke-width="1.2"/>
  <use href="#i-sqs" x="367" y="514" width="36" height="36"/>
  <text x="411" y="527" font-family="Inter,Arial,sans-serif" font-size="13" font-weight="600" fill="#DD344C">SQS DLQ</text>
  <text x="411" y="545" font-family="Inter,Arial,sans-serif" font-size="11" fill="#545B64">falhas isoladas</text>

  <!-- ── EKS COLUMN (x=565, w=220) ── -->
  <!-- notification-service R1 y=108 -->
  <rect x="565" y="128" width="220" height="72" rx="5" fill="white" stroke="#D5DBE5" stroke-width="1.2"/>
  <use href="#i-pod" x="574" y="146" width="36" height="36"/>
  <text x="618" y="159" font-family="Inter,Arial,sans-serif" font-size="12" font-weight="600" fill="#16191F">notification-service</text>
  <text x="618" y="177" font-family="Inter,Arial,sans-serif" font-size="11" fill="#545B64">envia notificações</text>

  <!-- query-service R2 y=220 -->
  <rect x="565" y="220" width="220" height="72" rx="5" fill="white" stroke="#D5DBE5" stroke-width="1.2"/>
  <use href="#i-pod" x="574" y="238" width="36" height="36"/>
  <text x="618" y="251" font-family="Inter,Arial,sans-serif" font-size="12" font-weight="600" fill="#16191F">query-service</text>
  <text x="618" y="269" font-family="Inter,Arial,sans-serif" font-size="11" fill="#545B64">CQRS read model</text>

  <!-- payment-service R3 y=312 -->
  <rect x="565" y="312" width="220" height="72" rx="5" fill="white" stroke="#D5DBE5" stroke-width="1.2"/>
  <use href="#i-pod" x="574" y="330" width="36" height="36"/>
  <text x="618" y="343" font-family="Inter,Arial,sans-serif" font-size="12" font-weight="600" fill="#16191F">payment-service</text>
  <text x="618" y="361" font-family="Inter,Arial,sans-serif" font-size="11" fill="#545B64">valida pagamentos</text>

  <!-- boleto-service R4 y=404 -->
  <rect x="565" y="404" width="220" height="72" rx="5" fill="white" stroke="#FF9900" stroke-width="1.5"/>
  <use href="#i-pod" x="574" y="422" width="36" height="36"/>
  <text x="618" y="435" font-family="Inter,Arial,sans-serif" font-size="12" font-weight="600" fill="#16191F">boleto-service</text>
  <text x="618" y="453" font-family="Inter,Arial,sans-serif" font-size="11" fill="#545B64">gera boleto + outbox</text>

  <!-- outbox-worker R5 y=496 -->
  <rect x="565" y="496" width="220" height="72" rx="5" fill="white" stroke="#D5DBE5" stroke-width="1.2"/>
  <use href="#i-gear" x="574" y="514" width="36" height="36"/>
  <text x="618" y="527" font-family="Inter,Arial,sans-serif" font-size="12" font-weight="600" fill="#16191F">outbox-worker</text>
  <text x="618" y="545" font-family="Inter,Arial,sans-serif" font-size="11" fill="#545B64">relay outbox → MSK</text>

  <!-- ── DATA COLUMN (x=852) ── -->
  <!-- RDS read R2 y=220 -->
  <rect x="852" y="220" width="185" height="72" rx="5" fill="white" stroke="#D5DBE5" stroke-width="1.2"/>
  <use href="#i-rds" x="861" y="238" width="36" height="36"/>
  <text x="905" y="251" font-family="Inter,Arial,sans-serif" font-size="12" font-weight="600" fill="#16191F">RDS PostgreSQL</text>
  <text x="905" y="269" font-family="Inter,Arial,sans-serif" font-size="11" fill="#545B64">read model (CQRS)</text>

  <!-- RDS write R4 y=404 -->
  <rect x="852" y="404" width="185" height="72" rx="5" fill="white" stroke="#D5DBE5" stroke-width="1.2"/>
  <use href="#i-rds" x="861" y="422" width="36" height="36"/>
  <text x="905" y="435" font-family="Inter,Arial,sans-serif" font-size="12" font-weight="600" fill="#16191F">RDS PostgreSQL</text>
  <text x="905" y="453" font-family="Inter,Arial,sans-serif" font-size="11" fill="#545B64">write model + outbox</text>

  <!-- ElastiCache R5 y=496 -->
  <rect x="852" y="496" width="185" height="72" rx="5" fill="white" stroke="#D5DBE5" stroke-width="1.2"/>
  <use href="#i-elasticache" x="861" y="514" width="36" height="36"/>
  <text x="905" y="527" font-family="Inter,Arial,sans-serif" font-size="12" font-weight="600" fill="#16191F">ElastiCache Redis</text>
  <text x="905" y="545" font-family="Inter,Arial,sans-serif" font-size="11" fill="#545B64">idempotência</text>

  <!-- S3 R6 y=588 -->
  <rect x="852" y="588" width="185" height="72" rx="5" fill="white" stroke="#D5DBE5" stroke-width="1.2"/>
  <use href="#i-s3" x="861" y="606" width="36" height="36"/>
  <text x="905" y="619" font-family="Inter,Arial,sans-serif" font-size="12" font-weight="600" fill="#16191F">Amazon S3</text>
  <text x="905" y="637" font-family="Inter,Arial,sans-serif" font-size="11" fill="#545B64">PDFs · backups</text>

  <!-- ── MSK TALL CARD (x=1062, y=190, h=300) ── -->
  <rect x="1062" y="190" width="185" height="320" rx="6" fill="white" stroke="#E7157B" stroke-width="1.5"/>
  <use href="#i-msk" x="1071" y="208" width="36" height="36"/>
  <text x="1115" y="220" font-family="Inter,Arial,sans-serif" font-size="13" font-weight="600" fill="#16191F">Amazon MSK</text>
  <text x="1115" y="237" font-family="Inter,Arial,sans-serif" font-size="11" fill="#545B64">Apache Kafka</text>
  <!-- Separator -->
  <line x1="1072" y1="256" x2="1237" y2="256" stroke="#F0D8E8" stroke-width="1"/>
  <!-- Topics -->
  <text x="1072" y="273" font-family="Inter,Arial,sans-serif" font-size="11" font-weight="700" fill="#E7157B">Tópicos</text>
  <circle cx="1079" cy="291" r="4" fill="#E7157B"/>
  <text x="1089" y="295" font-family="Inter,Arial,sans-serif" font-size="11" fill="#16191F">boleto.gerado</text>
  <circle cx="1079" cy="313" r="4" fill="#E7157B"/>
  <text x="1089" y="317" font-family="Inter,Arial,sans-serif" font-size="11" fill="#16191F">pagamento.efetivado</text>
  <circle cx="1079" cy="335" r="4" fill="#DD344C"/>
  <text x="1089" y="339" font-family="Inter,Arial,sans-serif" font-size="11" fill="#16191F">pagamento.rejeitado</text>
  <circle cx="1079" cy="357" r="4" fill="#569A31"/>
  <text x="1089" y="361" font-family="Inter,Arial,sans-serif" font-size="11" fill="#16191F">notificacao.enviada</text>
  <!-- DLT note -->
  <line x1="1072" y1="376" x2="1237" y2="376" stroke="#F0D8E8" stroke-width="1"/>
  <text x="1072" y="392" font-family="Inter,Arial,sans-serif" font-size="10" fill="#7B8EA0">Dead Letter Topics por</text>
  <text x="1072" y="406" font-family="Inter,Arial,sans-serif" font-size="10" fill="#7B8EA0">consumer (Kafka DLT)</text>
  <text x="1072" y="424" font-family="Inter,Arial,sans-serif" font-size="10" fill="#7B8EA0">retry + backoff</text>
  <text x="1072" y="442" font-family="Inter,Arial,sans-serif" font-size="10" fill="#7B8EA0">configurável por serviço</text>
  <text x="1072" y="460" font-family="Inter,Arial,sans-serif" font-size="10" fill="#7B8EA0">via Spring Kafka</text>

  <!-- ── OPS COLUMN 1 (x=1270) — y+20 to align with EKS rows ── -->
  <!-- CloudWatch y=128 — aligned with notification-service / Route 53 -->
  <rect x="1270" y="128" width="185" height="72" rx="5" fill="white" stroke="#D5DBE5" stroke-width="1.2"/>
  <use href="#i-cw" x="1279" y="146" width="36" height="36"/>
  <text x="1323" y="159" font-family="Inter,Arial,sans-serif" font-size="12" font-weight="600" fill="#16191F">CloudWatch</text>
  <text x="1323" y="177" font-family="Inter,Arial,sans-serif" font-size="11" fill="#545B64">logs · métricas · alarmes</text>

  <!-- X-Ray y=220 — aligned with query-service / RDS read -->
  <rect x="1270" y="220" width="185" height="72" rx="5" fill="white" stroke="#D5DBE5" stroke-width="1.2"/>
  <use href="#i-xray" x="1279" y="238" width="36" height="36"/>
  <text x="1323" y="251" font-family="Inter,Arial,sans-serif" font-size="12" font-weight="600" fill="#16191F">AWS X-Ray / OTel</text>
  <text x="1323" y="269" font-family="Inter,Arial,sans-serif" font-size="11" fill="#545B64">tracing distribuído</text>

  <!-- Secrets Manager y=312 — aligned with payment-service -->
  <rect x="1270" y="312" width="185" height="72" rx="5" fill="white" stroke="#D5DBE5" stroke-width="1.2"/>
  <use href="#i-secrets" x="1279" y="330" width="36" height="36"/>
  <text x="1323" y="343" font-family="Inter,Arial,sans-serif" font-size="12" font-weight="600" fill="#16191F">Secrets Manager</text>
  <text x="1323" y="361" font-family="Inter,Arial,sans-serif" font-size="11" fill="#545B64">credenciais · segredos</text>

  <!-- ── OPS COLUMN 2 (x=1475) — y+20 to align with EKS rows ── -->
  <!-- ECR y=128 -->
  <rect x="1475" y="128" width="185" height="72" rx="5" fill="white" stroke="#D5DBE5" stroke-width="1.2"/>
  <use href="#i-ecr" x="1484" y="146" width="36" height="36"/>
  <text x="1528" y="159" font-family="Inter,Arial,sans-serif" font-size="12" font-weight="600" fill="#16191F">Amazon ECR</text>
  <text x="1528" y="177" font-family="Inter,Arial,sans-serif" font-size="11" fill="#545B64">imagens Docker</text>

  <!-- SNS y=220 -->
  <rect x="1475" y="220" width="185" height="72" rx="5" fill="white" stroke="#D5DBE5" stroke-width="1.2"/>
  <use href="#i-sns" x="1484" y="238" width="36" height="36"/>
  <text x="1528" y="251" font-family="Inter,Arial,sans-serif" font-size="12" font-weight="600" fill="#16191F">SNS / SES</text>
  <text x="1528" y="269" font-family="Inter,Arial,sans-serif" font-size="11" fill="#545B64">alertas · e-mail</text>

  <!-- IAM y=312 -->
  <rect x="1475" y="312" width="185" height="72" rx="5" fill="white" stroke="#D5DBE5" stroke-width="1.2"/>
  <rect x="1484" y="330" width="36" height="36" rx="6" fill="#DD344C"/>
  <text x="1495" y="353" font-family="Arial,sans-serif" font-size="11" font-weight="700" fill="white">IAM</text>
  <text x="1528" y="343" font-family="Inter,Arial,sans-serif" font-size="12" font-weight="600" fill="#16191F">IAM + IRSA</text>
  <text x="1528" y="361" font-family="Inter,Arial,sans-serif" font-size="11" fill="#545B64">least privilege · RBAC</text>

  <!-- ═══════════════════════════════════════════════════
       ARROWS
       Sync:  solid dark  (#445566)  → marker mh
       Async: pink dash   (#E7157B)  → marker mhe
       Error: red dash    (#DD344C)  → marker mhr
       Obs:   gray dash   (#AAB7C4)  → marker mhg
  ═══════════════════════════════════════════════════ -->

  <!-- ── Edge chain (cards moved +20 px; centers = card_y + 36) ── -->
  <!-- Client → Route53: Route53 new center y=164 -->
  <path d="M90,402 L90,164 L148,164" fill="none" stroke="#445566" stroke-width="1.8" marker-end="url(#mh)"/>
  <!-- Route53 (bottom=200) → CloudFront (top=220) -->
  <path d="M241,200 L241,220" fill="none" stroke="#445566" stroke-width="1.8" marker-end="url(#mh)"/>
  <!-- CloudFront (bottom=292) → WAF (top=312) -->
  <path d="M241,292 L241,312" fill="none" stroke="#445566" stroke-width="1.8" marker-end="url(#mh)"/>
  <!-- WAF (bottom=384) → API Gateway (top=404) -->
  <path d="M241,384 L241,404" fill="none" stroke="#445566" stroke-width="1.8" marker-end="url(#mh)"/>

  <!-- ── Async ingestion ── -->

  <!-- ① API Gateway → SQS  (both centers now y=440)
       Label ABOVE arrow, badge BELOW — no overlap -->
  <path d="M333,440 L358,440" fill="none" stroke="#445566" stroke-width="2.2" marker-end="url(#mh)"/>
  <rect x="307" y="426" width="76" height="13" rx="2" fill="white" fill-opacity="0.96"/>
  <text x="345" y="436" text-anchor="middle" font-family="Inter,Arial,sans-serif" font-size="9" fill="#445566">202 Accepted</text>
  <circle cx="345" cy="453" r="8.5" fill="#16191F"/>
  <text x="345" y="457" text-anchor="middle" font-family="Inter,Arial,sans-serif" font-size="9" font-weight="700" fill="white">1</text>

  <!-- ② SQS → boleto-service  (SQS center=440, boleto center=440)
       Label ABOVE arrow, badge BELOW — no overlap -->
  <path d="M543,440 L565,440" fill="none" stroke="#445566" stroke-width="2.2" marker-end="url(#mh)"/>
  <rect x="517" y="426" width="74" height="13" rx="2" fill="white" fill-opacity="0.96"/>
  <text x="554" y="436" text-anchor="middle" font-family="Inter,Arial,sans-serif" font-size="9" fill="#445566">long polling</text>
  <circle cx="554" cy="453" r="8.5" fill="#16191F"/>
  <text x="554" y="457" text-anchor="middle" font-family="Inter,Arial,sans-serif" font-size="9" font-weight="700" fill="white">2</text>

  <!-- SQS ↓ DLQ: failure path  (SQS bottom=476, DLQ top=496) -->
  <path d="M451,476 L451,496" fill="none" stroke="#DD344C" stroke-width="1.5" stroke-dasharray="5,4" marker-end="url(#mhr)"/>
  <rect x="456" y="482" width="30" height="13" rx="2" fill="white" fill-opacity="0.96"/>
  <text x="471" y="492" text-anchor="middle" font-family="Inter,Arial,sans-serif" font-size="9" fill="#DD344C">falha</text>

  <!-- ── EKS processing ── -->

  <!-- ③ boleto-service → RDS write
       Label ABOVE arrow (y=426), badge BELOW arrow (cy=454) — no overlap -->
  <path d="M785,440 L852,440" fill="none" stroke="#445566" stroke-width="2.2" marker-end="url(#mh)"/>
  <rect x="778" y="426" width="80" height="13" rx="2" fill="white" fill-opacity="0.96"/>
  <text x="818" y="436" text-anchor="middle" font-family="Inter,Arial,sans-serif" font-size="9" fill="#445566">ACID + outbox</text>
  <circle cx="818" cy="454" r="8.5" fill="#16191F"/>
  <text x="818" y="458" text-anchor="middle" font-family="Inter,Arial,sans-serif" font-size="9" font-weight="700" fill="white">3</text>

  <!-- boleto → ElastiCache: idempotency check — label left of vertical segment -->
  <path d="M675,476 L675,532 L852,532" fill="none" stroke="#445566" stroke-width="1.3" stroke-dasharray="4,4" marker-end="url(#mh)"/>
  <rect x="602" y="498" width="86" height="13" rx="2" fill="white" fill-opacity="0.96"/>
  <text x="645" y="508" text-anchor="middle" font-family="Inter,Arial,sans-serif" font-size="9" fill="#445566">Idempotency-Key</text>

  <!-- ④ outbox-worker → MSK
       Horizontal segment at y=485 (gap between RDS write bottom=476 and ElastiCache top=496).
       Label ABOVE the horizontal segment; badge on the vertical segment at x=808. -->
  <path d="M785,532 L808,532 L808,485 L1044,485 L1062,485" fill="none" stroke="#E7157B" stroke-width="2" stroke-dasharray="6,4" marker-end="url(#mhe)"/>
  <rect x="966" y="470" width="86" height="13" rx="2" fill="white" fill-opacity="0.96"/>
  <text x="1009" y="480" text-anchor="middle" font-family="Inter,Arial,sans-serif" font-size="9" fill="#E7157B">boleto.gerado →</text>
  <circle cx="808" cy="510" r="8.5" fill="#E7157B"/>
  <text x="808" y="514" text-anchor="middle" font-family="Inter,Arial,sans-serif" font-size="9" font-weight="700" fill="white">4</text>

  <!-- ── Payment ↔ MSK (28 px vertical separation) ── -->

  <!-- ⑤ payment-service → MSK: publish (y=334)
       Label ABOVE arrow (y=320), badge BELOW arrow (cy=347) — no overlap -->
  <path d="M785,334 L1062,334" fill="none" stroke="#E7157B" stroke-width="1.8" stroke-dasharray="4,4" marker-end="url(#mhe)"/>
  <rect x="865" y="320" width="120" height="13" rx="2" fill="white" fill-opacity="0.96"/>
  <text x="925" y="330" text-anchor="middle" font-family="Inter,Arial,sans-serif" font-size="9" fill="#E7157B">pagamento.efetivado →</text>
  <circle cx="925" cy="347" r="8.5" fill="#E7157B"/>
  <text x="925" y="351" text-anchor="middle" font-family="Inter,Arial,sans-serif" font-size="9" font-weight="700" fill="white">5</text>

  <!-- MSK → payment-service: consume (y=362)
       Label BELOW arrow (y=365) — clearly separated from ⑤ label above y=334 -->
  <path d="M1062,362 L785,362" fill="none" stroke="#E7157B" stroke-width="1.8" stroke-dasharray="6,4" marker-end="url(#mhe)"/>
  <rect x="895" y="365" width="60" height="13" rx="2" fill="white" fill-opacity="0.96"/>
  <text x="925" y="375" text-anchor="middle" font-family="Inter,Arial,sans-serif" font-size="9" fill="#E7157B">← consume</text>

  <!-- ⑥ MSK → query-service
       Left from MSK at y=212 (above RDS read top=220), via x=808 corridor, down to query.
       Badge ABOVE the horizontal segment (cy=200). No text label — MSK card shows topics. -->
  <path d="M1062,212 L808,212 L808,256 L785,256" fill="none" stroke="#E7157B" stroke-width="1.8" stroke-dasharray="6,4" marker-end="url(#mhe)"/>
  <circle cx="925" cy="200" r="8.5" fill="#E7157B"/>
  <text x="925" y="204" text-anchor="middle" font-family="Inter,Arial,sans-serif" font-size="9" font-weight="700" fill="white">6</text>

  <!-- query-service → RDS read — label ABOVE arrow, centered in gap -->
  <path d="M785,256 L852,256" fill="none" stroke="#445566" stroke-width="1.8" marker-end="url(#mh)"/>
  <rect x="802" y="243" width="32" height="13" rx="2" fill="white" fill-opacity="0.96"/>
  <text x="818" y="253" text-anchor="middle" font-family="Inter,Arial,sans-serif" font-size="9" fill="#445566">read</text>

  <!-- ⑦ MSK → notification-service (y=164)
       Label ABOVE arrow (y=150), badge BELOW arrow (cy=177) — no overlap -->
  <path d="M1062,164 L785,164" fill="none" stroke="#E7157B" stroke-width="1.8" stroke-dasharray="6,4" marker-end="url(#mhe)"/>
  <rect x="866" y="150" width="118" height="13" rx="2" fill="white" fill-opacity="0.96"/>
  <text x="925" y="160" text-anchor="middle" font-family="Inter,Arial,sans-serif" font-size="9" fill="#E7157B">notificacao.enviada ←</text>
  <circle cx="925" cy="177" r="8.5" fill="#E7157B"/>
  <text x="925" y="181" text-anchor="middle" font-family="Inter,Arial,sans-serif" font-size="9" font-weight="700" fill="white">7</text>

  <!-- ── Observability: above cards at y=95, enters CloudWatch (new y=128) ── -->
  <path d="M785,95 L1248,95 L1248,128 L1270,128" fill="none" stroke="#AAB7C4" stroke-width="1.2" stroke-dasharray="4,5" marker-end="url(#mhg)"/>
  <rect x="930" y="83" width="126" height="13" rx="2" fill="white" fill-opacity="0.96"/>
  <text x="993" y="93" text-anchor="middle" font-family="Inter,Arial,sans-serif" font-size="9" fill="#7B8EA0">logs · métricas · traces</text>

  <!-- ═══════════════════════════════════════════════════
       LEGEND
  ═══════════════════════════════════════════════════ -->
  <rect x="1294" y="416" width="372" height="162" rx="6" fill="white" stroke="#D5DBE5" stroke-width="1.3"/>
  <text x="1310" y="438" font-family="Inter,Arial,sans-serif" font-size="12" font-weight="700" fill="#16191F">Legenda de Fluxo</text>
  <line x1="1310" y1="446" x2="1650" y2="446" stroke="#EEF2FF" stroke-width="1"/>
  <line x1="1310" y1="462" x2="1356" y2="462" stroke="#445566" stroke-width="2.2" marker-end="url(#mh)"/>
  <text x="1366" y="466" font-family="Inter,Arial,sans-serif" font-size="11" fill="#16191F">Chamada síncrona (REST/HTTP)</text>
  <line x1="1310" y1="486" x2="1356" y2="486" stroke="#E7157B" stroke-width="1.8" stroke-dasharray="6,4" marker-end="url(#mhe)"/>
  <text x="1366" y="490" font-family="Inter,Arial,sans-serif" font-size="11" fill="#16191F">Evento assíncrono (Kafka / SQS)</text>
  <line x1="1310" y1="510" x2="1356" y2="510" stroke="#DD344C" stroke-width="1.5" stroke-dasharray="5,4" marker-end="url(#mhr)"/>
  <text x="1366" y="514" font-family="Inter,Arial,sans-serif" font-size="11" fill="#16191F">Caminho de erro (DLQ / DLT)</text>
  <line x1="1310" y1="534" x2="1356" y2="534" stroke="#AAB7C4" stroke-width="1.2" stroke-dasharray="4,5" marker-end="url(#mhg)"/>
  <text x="1366" y="538" font-family="Inter,Arial,sans-serif" font-size="11" fill="#16191F">Observabilidade (logs / traces)</text>
  <circle cx="1318" cy="558" r="8.5" fill="#16191F"/>
  <text x="1318" y="562" text-anchor="middle" font-family="Inter,Arial,sans-serif" font-size="9" font-weight="700" fill="white">N</text>
  <text x="1334" y="562" font-family="Inter,Arial,sans-serif" font-size="11" fill="#16191F">Ordem do fluxo principal</text>

  <!-- ═══════════════════════════════════════════════════
       METHODOLOGY BAR
  ═══════════════════════════════════════════════════ -->
  <rect x="30" y="882" width="1740" height="80" rx="6" fill="#F8FAFC" stroke="#D5DBE5" stroke-width="1.2"/>
  <text x="46" y="905" font-family="Inter,Arial,sans-serif" font-size="12" font-weight="700" fill="#16191F">Padrões e Boas Práticas Aplicados</text>

  <!-- DDD -->
  <rect x="46" y="916" width="196" height="36" rx="4" fill="white" stroke="#D5DBE5" stroke-width="1"/>
  <text x="58" y="930" font-family="Inter,Arial,sans-serif" font-size="11" font-weight="700" fill="#16191F">DDD · Bounded Contexts</text>
  <text x="58" y="944" font-family="Inter,Arial,sans-serif" font-size="10" fill="#545B64">serviços separados por capacidade</text>

  <!-- CQRS -->
  <rect x="252" y="916" width="196" height="36" rx="4" fill="white" stroke="#D5DBE5" stroke-width="1"/>
  <text x="264" y="930" font-family="Inter,Arial,sans-serif" font-size="11" font-weight="700" fill="#16191F">CQRS</text>
  <text x="264" y="944" font-family="Inter,Arial,sans-serif" font-size="10" fill="#545B64">write model ≠ read model</text>

  <!-- Transactional Outbox -->
  <rect x="458" y="916" width="226" height="36" rx="4" fill="white" stroke="#D5DBE5" stroke-width="1"/>
  <text x="470" y="930" font-family="Inter,Arial,sans-serif" font-size="11" font-weight="700" fill="#16191F">Transactional Outbox</text>
  <text x="470" y="944" font-family="Inter,Arial,sans-serif" font-size="10" fill="#545B64">banco e evento na mesma tx ACID</text>

  <!-- Event-Driven -->
  <rect x="694" y="916" width="206" height="36" rx="4" fill="white" stroke="#D5DBE5" stroke-width="1"/>
  <text x="706" y="930" font-family="Inter,Arial,sans-serif" font-size="11" font-weight="700" fill="#16191F">Event-Driven Architecture</text>
  <text x="706" y="944" font-family="Inter,Arial,sans-serif" font-size="10" fill="#545B64">MSK desacopla todos os domínios</text>

  <!-- Resiliência -->
  <rect x="910" y="916" width="196" height="36" rx="4" fill="white" stroke="#D5DBE5" stroke-width="1"/>
  <text x="922" y="930" font-family="Inter,Arial,sans-serif" font-size="11" font-weight="700" fill="#16191F">Resiliência AWS</text>
  <text x="922" y="944" font-family="Inter,Arial,sans-serif" font-size="10" fill="#545B64">SQS absorve picos · DLQ · DLT</text>

  <!-- Segurança -->
  <rect x="1116" y="916" width="196" height="36" rx="4" fill="white" stroke="#D5DBE5" stroke-width="1"/>
  <text x="1128" y="930" font-family="Inter,Arial,sans-serif" font-size="11" font-weight="700" fill="#16191F">Segurança em Camadas</text>
  <text x="1128" y="944" font-family="Inter,Arial,sans-serif" font-size="10" fill="#545B64">WAF · IAM/IRSA · Secrets Mgr</text>

  <!-- Idempotência -->
  <rect x="1322" y="916" width="196" height="36" rx="4" fill="white" stroke="#D5DBE5" stroke-width="1"/>
  <text x="1334" y="930" font-family="Inter,Arial,sans-serif" font-size="11" font-weight="700" fill="#16191F">Idempotência</text>
  <text x="1334" y="944" font-family="Inter,Arial,sans-serif" font-size="10" fill="#545B64">Idempotency-Key via Redis</text>

  <!-- Hexagonal -->
  <rect x="1528" y="916" width="220" height="36" rx="4" fill="white" stroke="#D5DBE5" stroke-width="1"/>
  <text x="1540" y="930" font-family="Inter,Arial,sans-serif" font-size="11" font-weight="700" fill="#16191F">Arquitetura Hexagonal</text>
  <text x="1540" y="944" font-family="Inter,Arial,sans-serif" font-size="10" fill="#545B64">domain · application · adapter</text>

</svg>
